<svg width="88" height="88" viewBox="0 0 88 88" fill="none" xmlns="http://www.w3.org/2000/svg">
<rect width="88" height="88" fill="#D0CEFB"/>
<g clip-path="url(#clip0_8702_5714)">
<path fill-rule="evenodd" clip-rule="evenodd" d="M73.9138 11.999C74.5105 11.999 74.9931 12.4889 74.9608 13.0847C74.5607 20.4834 71.4566 27.4833 66.231 32.709C61.0054 37.9345 54.0531 40.9911 46.7399 41.3059C46.1487 41.3314 45.6667 40.8507 45.6667 40.259V13.0657C45.6667 12.4766 46.1442 11.999 46.7333 11.999H73.9138Z" fill="#3F177F"/>
<path d="M25.6667 41.3324C33.7669 41.3324 40.3333 34.7659 40.3333 26.6657C40.3333 18.5655 33.7669 11.999 25.6667 11.999C17.5665 11.999 11 18.5655 11 26.6657C11 34.7659 17.5665 41.3324 25.6667 41.3324Z" fill="#3F177F"/>
<path fill-rule="evenodd" clip-rule="evenodd" d="M74.9603 74.9131C74.993 75.509 74.5104 75.999 73.9136 75.999L42.0667 75.999C34.3311 75.8581 25.2183 72.7224 19.7475 67.2516C14.5332 62.0373 11.4402 55.0892 11.0395 47.7514C11.007 47.1556 11.4896 46.6657 12.0863 46.6657H45.3067C53.105 46.7138 60.5755 49.8085 66.1234 55.2891C71.4131 60.5147 74.5552 67.5145 74.9603 74.9131Z" fill="#3F177F"/>
</g>
<defs>
<clipPath id="clip0_8702_5714">
<rect width="64" height="64" fill="white" transform="translate(11 12)"/>
</clipPath>
</defs>
</svg>
